HIERARCHY
ROOT Hips
{
	OFFSET 0.000000 0.000000 0.000000 
	CHANNELS 6 Xposition Yposition Zposition Yrotation Zrotation Xrotation 
	JOINT Lumbar
	{
		OFFSET 0.000000 0.000000 0.000000 
		CHANNELS 3 Zrotation Xrotation Yrotation
		JOINT Neck
		{
			OFFSET 0.000000 0.445665 0.000000 
			CHANNELS 3 Zrotation Xrotation Yrotation
			End Site
			{
				OFFSET 0.000000 0.227535 0.000000 
			}
		}
		JOINT RightShoulder
		{
			OFFSET 0.019635 0.377685 0.194865 
			CHANNELS 3 Zrotation Xrotation Yrotation
			JOINT RightElbow
			{
				OFFSET 0.000000 -0.243375 0.000000 
				CHANNELS 2 Zrotation Yrotation
				JOINT RightWrist
				{
					OFFSET 0.000000 -0.264825 0.000000 
					CHANNELS 2 Zrotation Xrotation
					End Site
					{
						OFFSET 0.006600 -0.176220 0.000990 
					}
				}
			}
		}
		JOINT LeftShoulder
		{
			OFFSET 0.019635 0.377685 -0.194865 
			CHANNELS 3 Zrotation Xrotation Yrotation
			JOINT LeftElbow
			{
				OFFSET 0.000000 -0.243375 0.000000 
				CHANNELS 2 Zrotation Yrotation
				JOINT LeftWrist
				{
					OFFSET 0.000000 -0.264825 0.000000 
					CHANNELS 2 Zrotation Xrotation
					End Site
					{
						OFFSET 0.006600 -0.176220 -0.000990 
					}
				}
			}
		}
	}
	JOINT RightHip
	{
		OFFSET 0.052140 -0.069960 0.075570 
		CHANNELS 3 Zrotation Xrotation Yrotation
		JOINT RightKnee
		{
			OFFSET 0.000000 -0.402270 0.000000 
			CHANNELS 1 Zrotation
			JOINT RightAnkle
			{
				OFFSET 0.000000 -0.404085 0.000000 
				CHANNELS 3 Zrotation Xrotation Yrotation
				End Site
				{
					OFFSET 0.204105 -0.089430 0.008415 
				}
			}
		}
	}
	JOINT LeftHip
	{
		OFFSET 0.052140 -0.069960 -0.075570 
		CHANNELS 3 Zrotation Xrotation Yrotation
		JOINT LeftKnee
		{
			OFFSET 0.000000 -0.402270 0.000000 
			CHANNELS 1 Zrotation
			JOINT LeftAnkle
			{
				OFFSET 0.000000 -0.404085 0.000000 
				CHANNELS 3 Zrotation Xrotation Yrotation
				End Site
				{
					OFFSET 0.204105 -0.089430 -0.008415 
				}
			}
		}
	}
}
MOTION
Frames: 14
Frame Time: 0.02
0.00168 0.00041 0.00032 26.53892 -16.42558 -2.8988 45.46372 -0.18375 -8.01634 -14.80531 0.56216 -0.44019 -20.55982 -2.84068 -21.83454 27.80568 144.43676 19.34493 9.19221 -27.76934 2.50245 18.24497 33.56122 -166.81818 34.91751 -10.93959 27.17704 -3.26139 0.61141 -20.2487 -7.31171 -5.16154 -3.46574 31.46533 3.04882 -0.62579 -24.18793 -6.86109 3.92219 2.79409
0.00026 8e-05 0.00104 26.71829 -16.48406 -2.95699 45.33683 -0.18244 -7.95794 -14.62855 0.71349 -0.4408 -20.44066 -2.89985 -21.4608 27.29946 142.31936 18.88779 8.80915 -27.4578 2.93714 16.73215 33.41584 -160.90932 33.10373 -9.98361 27.32107 -3.28934 0.23266 -20.27442 -7.30051 -5.15576 -3.45688 31.67707 3.11175 -0.45584 -24.21593 -6.85872 3.9068 2.77367
-0.00117 -0.00024 0.00176 26.89727 -16.54228 -3.01501 45.21024 -0.18115 -7.89972 -14.45245 0.86441 -0.44142 -20.32185 -2.95885 -21.08811 26.79485 140.20811 18.43194 8.42721 -27.1472 3.36972 15.2261 33.27074 -155.02581 31.29767 -9.03175 27.46458 -3.31726 -0.14518 -20.30009 -7.28933 -5.14998 -3.44803 31.88813 3.17457 -0.28607 -24.24385 -6.85634 3.89138 2.75328
-0.00259 -0.00056 0.00248 27.07612 -16.60056 -3.07303 45.08372 -0.17985 -7.84151 -14.27625 1.01529 -0.44203 -20.20305 -3.01783 -20.71561 26.29019 138.09743 17.97625 8.04536 -26.83661 3.8029 13.71842 33.12578 -149.13683 29.48997 -8.07899 27.60815 -3.34513 -0.52281 -20.32574 -7.27816 -5.14421 -3.4392 32.09922 3.23732 -0.11657 -24.27176 -6.85398 3.87603 2.73292
-0.00402 -0.00089 0.00321 27.25528 -16.65914 -3.13122 44.95695 -0.17852 -7.78311 -14.09934 1.16656 -0.44265 -20.08393 -3.07702 -20.34183 25.78392 135.98001 17.51912 7.66228 -26.52513 4.2386 12.2028 32.98062 -143.21838 27.67331 -7.12145 27.75225 -3.37302 -0.90122 -20.35142 -7.26698 -5.13844 -3.43034 32.311 3.30017 0.05292 -24.29975 -6.85163 3.86072 2.71256
-0.00544 -0.00121 0.00392 27.43388 -16.71659 -3.18889 44.83074 -0.17731 -7.72528 -13.92497 1.31674 -0.44326 -19.96579 -3.13565 -19.97131 25.28282 133.88148 17.06591 7.28272 -26.2164 4.66467 10.71672 32.83564 -137.40779 25.88939 -6.18143 27.89451 -3.40098 -1.27783 -20.37707 -7.25582 -5.13266 -3.42153 32.52054 3.36289 0.22325 -24.32753 -6.84921 3.84507 2.69211
-0.00687 -0.00154 0.00465 27.6134 -16.77625 -3.24752 44.70353 -0.17586 -7.66638 -13.74566 1.46894 -0.44388 -19.84577 -3.1952 -19.59536 24.77187 131.74924 16.60579 6.89682 -25.90242 5.10927 9.17398 32.69045 -131.39081 24.0428 -5.2079 28.04032 -3.42877 -1.65769 -20.40276 -7.24463 -5.1269 -3.41263 32.73433 3.42582 0.3918 -24.35569 -6.84693 3.83013 2.67185
-0.00829 -0.00186 0.00537 27.7921 -16.83387 -3.30529 44.57725 -0.17463 -7.60842 -13.57095 1.61929 -0.4445 -19.72755 -3.25418 -19.22309 24.27 129.64446 16.15119 6.51617 -25.59337 5.5375 7.68138 32.54545 -125.55644 22.25177 -4.26398 28.18287 -3.4567 -2.03447 -20.42842 -7.23347 -5.12113 -3.40382 32.94423 3.48853 0.56183 -24.38351 -6.84452 3.81455 2.65142
-0.0097 -0.00218 0.00608 27.96979 -16.88899 -3.36198 44.45203 -0.17368 -7.55177 -13.40163 1.76739 -0.44511 -19.61119 -3.31138 -18.86041 23.77906 127.5867 15.70649 6.14411 -25.28985 5.94288 6.25819 32.40061 -119.97475 20.53715 -3.36116 28.32143 -3.48492 -2.40802 -20.45402 -7.22229 -5.11528 -3.39508 33.14935 3.55109 0.73444 -24.4109 -6.84193 3.79809 2.63073
-0.01119 -0.00252 0.00683 28.15328 -16.9585 -3.4248 44.32044 -0.17114 -7.48809 -13.2006 1.92847 -0.44575 -19.48313 -3.37556 -18.45785 23.22469 125.29879 15.21431 5.72915 -24.95301 6.47123 4.46007 32.25464 -113.02776 18.4084 -2.23661 28.4829 -3.51183 -2.80178 -20.47987 -7.21107 -5.1097 -3.38582 33.38191 3.6149 0.89456 -24.44071 -6.84034 3.7864 2.61141
-0.0125 -0.00282 0.0075 28.3245 -16.99764 -3.4747 44.20251 -0.17198 -7.43892 -13.06693 2.06212 -0.44632 -19.38038 -3.42708 -18.12969 22.80452 123.47083 14.81627 5.40058 -24.68749 6.7456 3.43724 32.1112 -108.90439 17.13698 -1.57042 28.59609 -3.54124 -3.1518 -20.50524 -7.20006 -5.10367 -3.37773 33.55661 3.67582 1.07944 -24.46547 -6.83667 3.76483 2.58929
-0.01332 -0.00303 0.00792 28.46235 -16.95249 -3.48876 44.12058 -0.18205 -7.43249 -13.11648 2.12036 -0.44669 -19.34276 -3.42613 -18.09049 22.75306 123.13563 14.73074 5.34649 -24.61097 6.26982 4.6971 31.97369 -113.09098 18.38166 -2.25497 28.57477 -3.5795 -3.38864 -20.52901 -7.18857 -5.09563 -3.37239 33.57032 3.73093 1.34647 -24.4759 -6.82684 3.71443 2.55846
-0.01396 -0.00321 0.00826 28.58794 -16.87681 -3.48994 44.05266 -0.19557 -7.44008 -13.23431 2.15109 -0.447 -19.33137 -3.41531 -18.11228 22.83621 123.2256 14.73122 5.37316 -24.60712 5.54796 6.70988 31.8389 -120.0205 20.46047 -3.38443 28.50507 -3.61969 -3.57947 -20.55236 -7.17757 -5.08735 -3.36836 33.52604 3.7828 1.63583 -24.48139 -6.815 3.65441 2.525
-0.01467 -0.00339 0.00864 28.71884 -16.81598 -3.49726 43.97925 -0.2075 -7.43937 -13.32149 2.19452 -0.44735 -19.31079 -3.42115 -18.04817 22.85754 122.96259 14.65502 5.33719 -24.57467 4.97461 8.27268 31.70355 -125.3131 22.04629 -4.24722 28.45923 -3.65796 -3.78798 -20.57603 -7.16692 -5.07959 -3.36398 33.51008 3.8347 1.90558 -24.48946 -6.80441 3.59992 2.49342
